<mxfile host="65bd71144e">
    <diagram id="6emHB_xRgd4O-OomhNLF" name="Page-1">
        <mxGraphModel dx="2262" dy="1445" grid="1" gridSize="10" guides="1" tooltips="1" connect="1" arrows="1" fold="1" page="1" pageScale="1" pageWidth="827" pageHeight="1169" math="0" shadow="0">
            <root>
                <mxCell id="0"/>
                <mxCell id="1" parent="0"/>
                <mxCell id="100" value="" style="shape=step;perimeter=stepPerimeter;whiteSpace=wrap;html=1;fixedSize=1;fontFamily=Helvetica;fontSize=16;fontColor=#FFFFFF;strokeColor=#FF0080;strokeWidth=2;fillColor=#FFFFFF;" parent="1" vertex="1">
                    <mxGeometry x="-120" y="621" width="201" height="179" as="geometry"/>
                </mxCell>
                <mxCell id="24" value="" style="ellipse;shape=cloud;whiteSpace=wrap;html=1;dashed=1;fontFamily=Helvetica;fontSize=16;strokeWidth=2;strokeColor=#0066CC;" parent="1" vertex="1">
                    <mxGeometry x="-246.5" y="113.5" width="360" height="366.5" as="geometry"/>
                </mxCell>
                <mxCell id="2" value="" style="rounded=0;whiteSpace=wrap;html=1;strokeWidth=1;dashed=1;" parent="1" vertex="1">
                    <mxGeometry x="140" y="170" width="570" height="560" as="geometry"/>
                </mxCell>
                <mxCell id="3" value="&lt;b&gt;&lt;font style=&quot;font-size: 22px&quot;&gt;Server&lt;/font&gt;&lt;/b&gt;" style="text;html=1;align=center;verticalAlign=middle;whiteSpace=wrap;rounded=0;fontColor=#333333;" parent="1" vertex="1">
                    <mxGeometry x="396" y="736.25" width="60" height="30" as="geometry"/>
                </mxCell>
                <mxCell id="4" value="" style="rounded=0;whiteSpace=wrap;html=1;fontFamily=Helvetica;fontSize=22;strokeWidth=2;dashed=1;fontColor=#FF0080;strokeColor=#FF0080;dashPattern=1 1;" parent="1" vertex="1">
                    <mxGeometry x="170" y="480" width="510" height="230" as="geometry"/>
                </mxCell>
                <mxCell id="5" value="&lt;b style=&quot;font-size: 16px&quot;&gt;&lt;font style=&quot;font-size: 16px&quot;&gt;Consensus Layer&lt;/font&gt;&lt;/b&gt;" style="text;html=1;strokeColor=none;fillColor=none;align=center;verticalAlign=middle;whiteSpace=wrap;rounded=0;fontSize=16;fontColor=#FF0080;" parent="1" vertex="1">
                    <mxGeometry x="520" y="484.5" width="159" height="30" as="geometry"/>
                </mxCell>
                <mxCell id="6" value="" style="rounded=0;whiteSpace=wrap;html=1;fontFamily=Helvetica;fontSize=22;strokeWidth=2;dashed=1;strokeColor=#0066CC;fillColor=none;dashPattern=1 1;" parent="1" vertex="1">
                    <mxGeometry x="170" y="198" width="510" height="180" as="geometry"/>
                </mxCell>
                <mxCell id="7" value="&lt;b style=&quot;font-size: 16px&quot;&gt;&lt;font style=&quot;font-size: 16px&quot;&gt;Execution Layer&lt;/font&gt;&lt;/b&gt;" style="text;html=1;strokeColor=none;fillColor=none;align=center;verticalAlign=middle;whiteSpace=wrap;rounded=0;fontSize=16;fontColor=#0066CC;" parent="1" vertex="1">
                    <mxGeometry x="170" y="204" width="150" height="30" as="geometry"/>
                </mxCell>
                <mxCell id="8" value="" style="ellipse;whiteSpace=wrap;html=1;aspect=fixed;fontFamily=Helvetica;fontSize=16;strokeWidth=1;strokeColor=none;fillColor=#3399FF;" parent="1" vertex="1">
                    <mxGeometry x="-127" y="176" width="47" height="47" as="geometry"/>
                </mxCell>
                <mxCell id="28" style="edgeStyle=none;html=1;exitX=1;exitY=0;exitDx=0;exitDy=0;entryX=0;entryY=1;entryDx=0;entryDy=0;fontFamily=Helvetica;fontSize=16;startArrow=classic;startFill=1;strokeColor=#0066CC;" parent="1" source="11" target="8" edge="1">
                    <mxGeometry relative="1" as="geometry"/>
                </mxCell>
                <mxCell id="29" style="edgeStyle=none;html=1;exitX=1;exitY=0.5;exitDx=0;exitDy=0;fontFamily=Helvetica;fontSize=16;startArrow=classic;startFill=1;strokeColor=#0066CC;" parent="1" source="11" target="12" edge="1">
                    <mxGeometry relative="1" as="geometry"/>
                </mxCell>
                <mxCell id="30" style="edgeStyle=none;html=1;exitX=0.5;exitY=1;exitDx=0;exitDy=0;fontFamily=Helvetica;fontSize=16;startArrow=classic;startFill=1;strokeColor=#0066CC;" parent="1" source="11" target="15" edge="1">
                    <mxGeometry relative="1" as="geometry"/>
                </mxCell>
                <mxCell id="11" value="" style="ellipse;whiteSpace=wrap;html=1;aspect=fixed;fontFamily=Helvetica;fontSize=16;strokeWidth=1;strokeColor=none;fillColor=#3399FF;" parent="1" vertex="1">
                    <mxGeometry x="-200" y="251.5" width="47" height="47" as="geometry"/>
                </mxCell>
                <mxCell id="12" value="" style="ellipse;whiteSpace=wrap;html=1;aspect=fixed;fontFamily=Helvetica;fontSize=16;strokeWidth=1;strokeColor=none;fillColor=#3399FF;" parent="1" vertex="1">
                    <mxGeometry x="-63" y="213" width="47" height="47" as="geometry"/>
                </mxCell>
                <mxCell id="26" style="edgeStyle=none;html=1;entryX=1;entryY=1;entryDx=0;entryDy=0;fontFamily=Helvetica;fontSize=16;startArrow=classic;startFill=1;strokeColor=#0066CC;" parent="1" source="13" target="12" edge="1">
                    <mxGeometry relative="1" as="geometry"/>
                </mxCell>
                <mxCell id="27" style="edgeStyle=none;html=1;fontFamily=Helvetica;fontSize=16;startArrow=classic;startFill=1;strokeColor=#0066CC;" parent="1" source="13" target="25" edge="1">
                    <mxGeometry relative="1" as="geometry"/>
                </mxCell>
                <mxCell id="13" value="" style="ellipse;whiteSpace=wrap;html=1;aspect=fixed;fontFamily=Helvetica;fontSize=16;strokeWidth=1;strokeColor=none;fillColor=#3399FF;" parent="1" vertex="1">
                    <mxGeometry x="-16" y="290" width="47" height="47" as="geometry"/>
                </mxCell>
                <mxCell id="22" style="edgeStyle=none;html=1;entryX=1;entryY=0;entryDx=0;entryDy=0;fontFamily=Helvetica;fontSize=16;startArrow=classic;startFill=1;strokeColor=#0066CC;" parent="1" source="14" target="12" edge="1">
                    <mxGeometry relative="1" as="geometry"/>
                </mxCell>
                <mxCell id="14" value="" style="ellipse;whiteSpace=wrap;html=1;aspect=fixed;fontFamily=Helvetica;fontSize=16;strokeWidth=1;strokeColor=none;fillColor=#3399FF;" parent="1" vertex="1">
                    <mxGeometry x="20" y="223" width="47" height="47" as="geometry"/>
                </mxCell>
                <mxCell id="31" style="edgeStyle=none;html=1;exitX=1;exitY=1;exitDx=0;exitDy=0;fontFamily=Helvetica;fontSize=16;startArrow=classic;startFill=1;strokeColor=#0066CC;" parent="1" source="15" target="16" edge="1">
                    <mxGeometry relative="1" as="geometry"/>
                </mxCell>
                <mxCell id="15" value="" style="ellipse;whiteSpace=wrap;html=1;aspect=fixed;fontFamily=Helvetica;fontSize=16;strokeWidth=1;strokeColor=none;fillColor=#3399FF;" parent="1" vertex="1">
                    <mxGeometry x="-167" y="340" width="47" height="47" as="geometry"/>
                </mxCell>
                <mxCell id="23" style="edgeStyle=none;html=1;entryX=0;entryY=0.5;entryDx=0;entryDy=0;fontFamily=Helvetica;fontSize=16;startArrow=classic;startFill=1;strokeColor=#0066CC;" parent="1" source="16" target="17" edge="1">
                    <mxGeometry relative="1" as="geometry"/>
                </mxCell>
                <mxCell id="32" style="edgeStyle=none;html=1;exitX=0.5;exitY=0;exitDx=0;exitDy=0;fontFamily=Helvetica;fontSize=16;startArrow=classic;startFill=1;strokeColor=#0066CC;" parent="1" source="16" target="25" edge="1">
                    <mxGeometry relative="1" as="geometry"/>
                </mxCell>
                <mxCell id="16" value="" style="ellipse;whiteSpace=wrap;html=1;aspect=fixed;fontFamily=Helvetica;fontSize=16;strokeWidth=1;strokeColor=none;fillColor=#3399FF;" parent="1" vertex="1">
                    <mxGeometry x="-80" y="387" width="47" height="47" as="geometry"/>
                </mxCell>
                <mxCell id="36" style="edgeStyle=none;html=1;exitX=0;exitY=0;exitDx=0;exitDy=0;entryX=1;entryY=0.5;entryDx=0;entryDy=0;fontFamily=Helvetica;fontSize=16;startArrow=classic;startFill=1;strokeColor=#0066CC;" parent="1" source="17" target="25" edge="1">
                    <mxGeometry relative="1" as="geometry"/>
                </mxCell>
                <mxCell id="17" value="" style="ellipse;whiteSpace=wrap;html=1;aspect=fixed;fontFamily=Helvetica;fontSize=16;strokeWidth=1;strokeColor=none;fillColor=#3399FF;" parent="1" vertex="1">
                    <mxGeometry x="10" y="350" width="47" height="47" as="geometry"/>
                </mxCell>
                <mxCell id="33" style="edgeStyle=none;html=1;exitX=0.5;exitY=0;exitDx=0;exitDy=0;entryX=0.5;entryY=1;entryDx=0;entryDy=0;fontFamily=Helvetica;fontSize=16;startArrow=classic;startFill=1;strokeColor=#0066CC;" parent="1" source="25" target="8" edge="1">
                    <mxGeometry relative="1" as="geometry"/>
                </mxCell>
                <mxCell id="25" value="" style="ellipse;whiteSpace=wrap;html=1;aspect=fixed;fontFamily=Helvetica;fontSize=16;strokeWidth=1;strokeColor=none;fillColor=#3399FF;" parent="1" vertex="1">
                    <mxGeometry x="-120" y="290" width="47" height="47" as="geometry"/>
                </mxCell>
                <mxCell id="37" value="&lt;font style=&quot;font-size: 20px&quot;&gt;Execution Clients&lt;/font&gt;&lt;br&gt;&lt;span style=&quot;font-weight: normal&quot;&gt;P2P Network&lt;/span&gt;" style="text;html=1;strokeColor=none;fillColor=none;align=center;verticalAlign=middle;whiteSpace=wrap;rounded=0;dashed=1;fontFamily=Helvetica;fontSize=16;fontColor=#0066CC;fontStyle=1" parent="1" vertex="1">
                    <mxGeometry x="-160.5" y="470" width="188" height="50" as="geometry"/>
                </mxCell>
                <mxCell id="38" value="" style="ellipse;shape=cloud;whiteSpace=wrap;html=1;dashed=1;fontFamily=Helvetica;fontSize=16;strokeWidth=2;strokeColor=#FF0080;fontColor=#FF0080;" parent="1" vertex="1">
                    <mxGeometry x="730" y="408" width="369" height="370" as="geometry"/>
                </mxCell>
                <mxCell id="39" value="" style="ellipse;whiteSpace=wrap;html=1;aspect=fixed;fontFamily=Helvetica;fontSize=16;strokeWidth=1;strokeColor=none;fillColor=#FF0080;fontColor=#FF0080;" parent="1" vertex="1">
                    <mxGeometry x="847" y="489.5" width="47" height="47" as="geometry"/>
                </mxCell>
                <mxCell id="40" style="edgeStyle=none;html=1;exitX=1;exitY=0;exitDx=0;exitDy=0;entryX=0;entryY=1;entryDx=0;entryDy=0;fontFamily=Helvetica;fontSize=16;startArrow=classic;startFill=1;strokeColor=#FF0080;fontColor=#FF0080;" parent="1" source="43" target="39" edge="1">
                    <mxGeometry relative="1" as="geometry"/>
                </mxCell>
                <mxCell id="41" style="edgeStyle=none;html=1;exitX=1;exitY=0.5;exitDx=0;exitDy=0;fontFamily=Helvetica;fontSize=16;startArrow=classic;startFill=1;strokeColor=#FF0080;fontColor=#FF0080;" parent="1" source="43" target="44" edge="1">
                    <mxGeometry relative="1" as="geometry"/>
                </mxCell>
                <mxCell id="42" style="edgeStyle=none;html=1;exitX=0.5;exitY=1;exitDx=0;exitDy=0;fontFamily=Helvetica;fontSize=16;startArrow=classic;startFill=1;strokeColor=#FF0080;fontColor=#FF0080;" parent="1" source="43" target="51" edge="1">
                    <mxGeometry relative="1" as="geometry"/>
                </mxCell>
                <mxCell id="43" value="" style="ellipse;whiteSpace=wrap;html=1;aspect=fixed;fontFamily=Helvetica;fontSize=16;strokeWidth=1;strokeColor=none;fillColor=#FF0080;fontColor=#FF0080;" parent="1" vertex="1">
                    <mxGeometry x="800" y="578" width="47" height="47" as="geometry"/>
                </mxCell>
                <mxCell id="44" value="" style="ellipse;whiteSpace=wrap;html=1;aspect=fixed;fontFamily=Helvetica;fontSize=16;strokeWidth=1;strokeColor=none;fillColor=#FF0080;fontColor=#FF0080;" parent="1" vertex="1">
                    <mxGeometry x="920" y="491" width="47" height="47" as="geometry"/>
                </mxCell>
                <mxCell id="45" style="edgeStyle=none;html=1;entryX=1;entryY=1;entryDx=0;entryDy=0;fontFamily=Helvetica;fontSize=16;startArrow=classic;startFill=1;strokeColor=#FF0080;fontColor=#FF0080;" parent="1" source="47" target="44" edge="1">
                    <mxGeometry relative="1" as="geometry"/>
                </mxCell>
                <mxCell id="46" style="edgeStyle=none;html=1;fontFamily=Helvetica;fontSize=16;startArrow=classic;startFill=1;strokeColor=#FF0080;fontColor=#FF0080;" parent="1" source="47" target="58" edge="1">
                    <mxGeometry relative="1" as="geometry"/>
                </mxCell>
                <mxCell id="47" value="" style="ellipse;whiteSpace=wrap;html=1;aspect=fixed;fontFamily=Helvetica;fontSize=16;strokeWidth=1;strokeColor=none;fillColor=#FF0080;fontColor=#FF0080;" parent="1" vertex="1">
                    <mxGeometry x="964.5" y="564.75" width="47" height="47" as="geometry"/>
                </mxCell>
                <mxCell id="48" style="edgeStyle=none;html=1;entryX=1;entryY=0.5;entryDx=0;entryDy=0;fontFamily=Helvetica;fontSize=16;startArrow=classic;startFill=1;strokeColor=#FF0080;fontColor=#FF0080;" parent="1" source="49" target="44" edge="1">
                    <mxGeometry relative="1" as="geometry"/>
                </mxCell>
                <mxCell id="49" value="" style="ellipse;whiteSpace=wrap;html=1;aspect=fixed;fontFamily=Helvetica;fontSize=16;strokeWidth=1;strokeColor=none;fillColor=#FF0080;fontColor=#FF0080;" parent="1" vertex="1">
                    <mxGeometry x="1010.5" y="514.5" width="47" height="47" as="geometry"/>
                </mxCell>
                <mxCell id="50" style="edgeStyle=none;html=1;exitX=1;exitY=1;exitDx=0;exitDy=0;fontFamily=Helvetica;fontSize=16;startArrow=classic;startFill=1;strokeColor=#FF0080;fontColor=#FF0080;" parent="1" source="51" target="54" edge="1">
                    <mxGeometry relative="1" as="geometry"/>
                </mxCell>
                <mxCell id="51" value="" style="ellipse;whiteSpace=wrap;html=1;aspect=fixed;fontFamily=Helvetica;fontSize=16;strokeWidth=1;strokeColor=none;fillColor=#FF0080;fontColor=#FF0080;" parent="1" vertex="1">
                    <mxGeometry x="820" y="648" width="47" height="47" as="geometry"/>
                </mxCell>
                <mxCell id="52" style="edgeStyle=none;html=1;entryX=0;entryY=0.5;entryDx=0;entryDy=0;fontFamily=Helvetica;fontSize=16;startArrow=classic;startFill=1;strokeColor=#FF0080;fontColor=#FF0080;" parent="1" source="54" target="56" edge="1">
                    <mxGeometry relative="1" as="geometry"/>
                </mxCell>
                <mxCell id="53" style="edgeStyle=none;html=1;exitX=0.5;exitY=0;exitDx=0;exitDy=0;fontFamily=Helvetica;fontSize=16;startArrow=classic;startFill=1;strokeColor=#FF0080;fontColor=#FF0080;" parent="1" source="54" target="58" edge="1">
                    <mxGeometry relative="1" as="geometry"/>
                </mxCell>
                <mxCell id="54" value="" style="ellipse;whiteSpace=wrap;html=1;aspect=fixed;fontFamily=Helvetica;fontSize=16;strokeWidth=1;strokeColor=none;fillColor=#FF0080;fontColor=#FF0080;" parent="1" vertex="1">
                    <mxGeometry x="930" y="681" width="47" height="47" as="geometry"/>
                </mxCell>
                <mxCell id="55" style="edgeStyle=none;html=1;exitX=0;exitY=0;exitDx=0;exitDy=0;entryX=1;entryY=0.5;entryDx=0;entryDy=0;fontFamily=Helvetica;fontSize=16;startArrow=classic;startFill=1;strokeColor=#FF0080;fontColor=#FF0080;" parent="1" source="56" target="58" edge="1">
                    <mxGeometry relative="1" as="geometry"/>
                </mxCell>
                <mxCell id="63" style="edgeStyle=none;html=1;exitX=0.5;exitY=0;exitDx=0;exitDy=0;fontFamily=Helvetica;fontSize=20;fontColor=#FF0080;startArrow=classic;startFill=1;strokeColor=#FF0080;" parent="1" source="56" target="49" edge="1">
                    <mxGeometry relative="1" as="geometry"/>
                </mxCell>
                <mxCell id="56" value="" style="ellipse;whiteSpace=wrap;html=1;aspect=fixed;fontFamily=Helvetica;fontSize=16;strokeWidth=1;strokeColor=none;fillColor=#FF0080;fontColor=#FF0080;" parent="1" vertex="1">
                    <mxGeometry x="980" y="631" width="47" height="47" as="geometry"/>
                </mxCell>
                <mxCell id="57" style="edgeStyle=none;html=1;exitX=0.5;exitY=0;exitDx=0;exitDy=0;entryX=0.5;entryY=1;entryDx=0;entryDy=0;fontFamily=Helvetica;fontSize=16;startArrow=classic;startFill=1;strokeColor=#FF0080;fontColor=#FF0080;" parent="1" source="58" target="39" edge="1">
                    <mxGeometry relative="1" as="geometry"/>
                </mxCell>
                <mxCell id="58" value="" style="ellipse;whiteSpace=wrap;html=1;aspect=fixed;fontFamily=Helvetica;fontSize=16;strokeWidth=1;strokeColor=none;fillColor=#FF0080;fontColor=#FF0080;" parent="1" vertex="1">
                    <mxGeometry x="883" y="579" width="47" height="47" as="geometry"/>
                </mxCell>
                <mxCell id="59" value="&lt;font style=&quot;font-size: 20px&quot;&gt;Consensus Clients&lt;/font&gt;&lt;br&gt;&lt;span style=&quot;font-weight: normal&quot;&gt;P2P Network&lt;/span&gt;" style="text;html=1;strokeColor=none;fillColor=none;align=center;verticalAlign=middle;whiteSpace=wrap;rounded=0;dashed=1;fontFamily=Helvetica;fontSize=16;fontColor=#FF0080;fontStyle=1" parent="1" vertex="1">
                    <mxGeometry x="809.5" y="387" width="217.5" height="47" as="geometry"/>
                </mxCell>
                <mxCell id="73" value="" style="group" parent="1" vertex="1" connectable="0">
                    <mxGeometry x="456" y="513.75" width="280" height="186.25" as="geometry"/>
                </mxCell>
                <mxCell id="69" value="&lt;font color=&quot;#ffffff&quot;&gt;Beacon Chain &lt;br&gt;Node&lt;/font&gt;" style="ellipse;whiteSpace=wrap;html=1;aspect=fixed;fontFamily=Helvetica;fontSize=16;strokeWidth=1;strokeColor=none;fillColor=#FF0080;fontColor=#FF0080;" parent="73" vertex="1">
                    <mxGeometry width="177.6545232992983" height="177.6545232992983" as="geometry"/>
                </mxCell>
                <mxCell id="70" value="&lt;font style=&quot;font-size: 12px&quot;&gt;Peer&lt;/font&gt;" style="text;html=1;strokeColor=none;fillColor=none;align=center;verticalAlign=middle;whiteSpace=wrap;rounded=0;dashed=1;dashPattern=1 1;fontFamily=Helvetica;fontSize=20;fontColor=#FF0080;rotation=-20;" parent="73" vertex="1">
                    <mxGeometry x="194.1217821621118" y="26.191644182814162" width="70.58978197812708" height="34.49074074074075" as="geometry"/>
                </mxCell>
                <mxCell id="71" value="&lt;font style=&quot;font-size: 12px&quot;&gt;Peer&lt;/font&gt;" style="text;html=1;strokeColor=none;fillColor=none;align=center;verticalAlign=middle;whiteSpace=wrap;rounded=0;dashed=1;dashPattern=1 1;fontFamily=Helvetica;fontSize=20;fontColor=#FF0080;rotation=-4.4;" parent="73" vertex="1">
                    <mxGeometry x="202.35728038177416" y="59.783950617283956" width="70.58978197812708" height="34.49074074074075" as="geometry"/>
                </mxCell>
                <mxCell id="72" value="&lt;font style=&quot;font-size: 12px&quot;&gt;Peer&lt;/font&gt;" style="text;html=1;strokeColor=none;fillColor=none;align=center;verticalAlign=middle;whiteSpace=wrap;rounded=0;dashed=1;dashPattern=1 1;fontFamily=Helvetica;fontSize=20;fontColor=#FF0080;rotation=9.1;" parent="73" vertex="1">
                    <mxGeometry x="201.1807603599245" y="89.7596782765105" width="70.58978197812708" height="34.49074074074075" as="geometry"/>
                </mxCell>
                <mxCell id="62" style="edgeStyle=none;html=1;exitX=0;exitY=0.5;exitDx=0;exitDy=0;fontFamily=Helvetica;fontSize=20;fontColor=#FF0080;startArrow=classic;startFill=1;strokeColor=#FF0080;entryX=0.988;entryY=0.432;entryDx=0;entryDy=0;entryPerimeter=0;" parent="1" source="39" target="69" edge="1">
                    <mxGeometry relative="1" as="geometry"/>
                </mxCell>
                <mxCell id="60" style="edgeStyle=none;html=1;fontFamily=Helvetica;fontSize=20;fontColor=#FF0080;startArrow=classic;startFill=1;strokeColor=#FF0080;entryX=1;entryY=0.5;entryDx=0;entryDy=0;" parent="1" source="43" target="69" edge="1">
                    <mxGeometry relative="1" as="geometry"/>
                </mxCell>
                <mxCell id="61" style="edgeStyle=none;html=1;fontFamily=Helvetica;fontSize=20;fontColor=#FF0080;startArrow=classic;startFill=1;strokeColor=#FF0080;" parent="1" source="51" target="69" edge="1">
                    <mxGeometry relative="1" as="geometry"/>
                </mxCell>
                <mxCell id="74" value="" style="group" parent="1" vertex="1" connectable="0">
                    <mxGeometry x="206.49" y="234" width="283.51" height="127" as="geometry"/>
                </mxCell>
                <mxCell id="65" value="Execution &lt;br&gt;Client" style="ellipse;whiteSpace=wrap;html=1;aspect=fixed;fontFamily=Helvetica;fontSize=16;strokeWidth=1;strokeColor=none;fillColor=#3399FF;fontColor=#FFFFFF;" parent="74" vertex="1">
                    <mxGeometry x="148.17841832821625" width="127" height="127" as="geometry"/>
                </mxCell>
                <mxCell id="66" value="&lt;font color=&quot;#0066cc&quot; style=&quot;font-size: 12px&quot;&gt;Peer&lt;/font&gt;" style="text;html=1;strokeColor=none;fillColor=none;align=center;verticalAlign=middle;whiteSpace=wrap;rounded=0;dashed=1;dashPattern=1 1;fontFamily=Helvetica;fontSize=20;fontColor=#FFFFFF;rotation=7.8;" parent="74" vertex="1">
                    <mxGeometry x="2.4747081341424892" y="11.124087591240876" width="59.26930584165712" height="27.81021897810219" as="geometry"/>
                </mxCell>
                <mxCell id="67" value="&lt;font color=&quot;#0066cc&quot; style=&quot;font-size: 12px&quot;&gt;Peer&lt;/font&gt;" style="text;html=1;strokeColor=none;fillColor=none;align=center;verticalAlign=middle;whiteSpace=wrap;rounded=0;dashed=1;dashPattern=1 1;fontFamily=Helvetica;fontSize=20;fontColor=#FFFFFF;rotation=-2.000000000000001;" parent="74" vertex="1">
                    <mxGeometry x="0.4990646060872519" y="42.64233576642336" width="59.26930584165712" height="27.81021897810219" as="geometry"/>
                </mxCell>
                <mxCell id="68" value="&lt;font color=&quot;#0066cc&quot; style=&quot;font-size: 12px&quot;&gt;Peer&lt;/font&gt;" style="text;html=1;strokeColor=none;fillColor=none;align=center;verticalAlign=middle;whiteSpace=wrap;rounded=0;dashed=1;dashPattern=1 1;fontFamily=Helvetica;fontSize=20;fontColor=#FFFFFF;rotation=-10;" parent="74" vertex="1">
                    <mxGeometry x="2.4747081341424892" y="72.30656934306569" width="59.26930584165712" height="27.81021897810219" as="geometry"/>
                </mxCell>
                <mxCell id="18" style="edgeStyle=none;html=1;entryX=1;entryY=0.5;entryDx=0;entryDy=0;fontFamily=Helvetica;fontSize=16;startArrow=classic;startFill=1;strokeColor=#0066CC;" parent="1" source="65" target="14" edge="1">
                    <mxGeometry relative="1" as="geometry"/>
                </mxCell>
                <mxCell id="19" style="edgeStyle=none;html=1;exitX=0.004;exitY=0.584;exitDx=0;exitDy=0;entryX=1;entryY=0.5;entryDx=0;entryDy=0;fontFamily=Helvetica;fontSize=16;startArrow=classic;startFill=1;strokeColor=#0066CC;exitPerimeter=0;" parent="1" source="65" target="17" edge="1">
                    <mxGeometry relative="1" as="geometry"/>
                </mxCell>
                <mxCell id="20" style="edgeStyle=none;html=1;entryX=1;entryY=0.5;entryDx=0;entryDy=0;fontFamily=Helvetica;fontSize=16;startArrow=classic;startFill=1;strokeColor=#0066CC;exitX=0;exitY=0.5;exitDx=0;exitDy=0;" parent="1" source="65" target="13" edge="1">
                    <mxGeometry relative="1" as="geometry"/>
                </mxCell>
                <mxCell id="84" value="&lt;font style=&quot;font-size: 18px&quot;&gt;&lt;b&gt;Staking Deposit Data Generator&lt;/b&gt;&lt;/font&gt;" style="text;html=1;strokeColor=none;fillColor=none;align=left;verticalAlign=middle;whiteSpace=wrap;rounded=0;fontFamily=Helvetica;fontSize=18;fontColor=#FF0080;fontStyle=0" parent="1" vertex="1">
                    <mxGeometry x="-192.5" y="809" width="400" height="30" as="geometry"/>
                </mxCell>
                <mxCell id="85" value="password.txt" style="rounded=0;whiteSpace=wrap;html=1;fontFamily=Helvetica;fontSize=12;fontColor=#FF0080;strokeColor=#FF0080;strokeWidth=2;fillColor=#FFFFFF;" parent="1" vertex="1">
                    <mxGeometry x="-75.25" y="752" width="120" height="28.25" as="geometry"/>
                </mxCell>
                <mxCell id="87" value="deposit_data.json" style="rounded=0;whiteSpace=wrap;html=1;fontFamily=Helvetica;fontSize=12;fontColor=#FF0080;strokeColor=#FF0080;strokeWidth=2;fillColor=#FFFFFF;" parent="1" vertex="1">
                    <mxGeometry x="-75.25" y="646.38" width="120" height="28.25" as="geometry"/>
                </mxCell>
                <mxCell id="88" value="Mnemonic" style="ellipse;shape=cloud;whiteSpace=wrap;html=1;fontFamily=Helvetica;fontSize=14;fontColor=#FF0080;strokeColor=#FF0080;strokeWidth=2;fillColor=#FFFFFF;" parent="1" vertex="1">
                    <mxGeometry x="-203.75" y="590" width="120" height="80" as="geometry"/>
                </mxCell>
                <mxCell id="97" value="" style="group" parent="1" vertex="1" connectable="0">
                    <mxGeometry x="-81.75" y="692" width="133" height="41.25" as="geometry"/>
                </mxCell>
                <mxCell id="89" value="keystore-xx.json" style="rounded=0;whiteSpace=wrap;html=1;fontFamily=Helvetica;fontSize=12;fontColor=#FF0080;strokeColor=#FF0080;strokeWidth=2;fillColor=#FFFFFF;" parent="97" vertex="1">
                    <mxGeometry width="120" height="28.25" as="geometry"/>
                </mxCell>
                <mxCell id="91" value="keystore-xx.json" style="rounded=0;whiteSpace=wrap;html=1;fontFamily=Helvetica;fontSize=12;fontColor=#FF0080;strokeColor=#FF0080;strokeWidth=2;fillColor=#FFFFFF;" parent="97" vertex="1">
                    <mxGeometry x="6" y="6" width="120" height="28.25" as="geometry"/>
                </mxCell>
                <mxCell id="92" value="keystore-xx.json" style="rounded=0;whiteSpace=wrap;html=1;fontFamily=Helvetica;fontSize=12;fontColor=#FF0080;strokeColor=#FF0080;strokeWidth=2;fillColor=#FFFFFF;" parent="97" vertex="1">
                    <mxGeometry x="13" y="13" width="120" height="28.25" as="geometry"/>
                </mxCell>
                <mxCell id="99" style="edgeStyle=none;html=1;exitX=0;exitY=0.5;exitDx=0;exitDy=0;fontFamily=Helvetica;fontSize=16;fontColor=#FFFFFF;startArrow=classic;startFill=1;strokeColor=#FF0080;" parent="1" source="69" edge="1">
                    <mxGeometry relative="1" as="geometry">
                        <mxPoint x="358" y="600" as="targetPoint"/>
                    </mxGeometry>
                </mxCell>
                <mxCell id="101" value="Validator" style="shape=step;perimeter=stepPerimeter;whiteSpace=wrap;html=1;fixedSize=1;fontFamily=Helvetica;fontSize=16;fontColor=#FFFFFF;strokeColor=#FF0080;strokeWidth=2;fillColor=#FF0080;verticalAlign=top;" parent="1" vertex="1">
                    <mxGeometry x="190" y="515" width="170" height="175" as="geometry"/>
                </mxCell>
                <mxCell id="180" style="edgeStyle=none;html=1;exitX=1;exitY=0.5;exitDx=0;exitDy=0;fontColor=#808080;dashed=1;strokeColor=#FF0080;" edge="1" parent="1" source="92" target="101">
                    <mxGeometry relative="1" as="geometry"/>
                </mxCell>
                <mxCell id="181" value="Import" style="text;html=1;strokeColor=none;fillColor=none;align=center;verticalAlign=middle;whiteSpace=wrap;rounded=0;fontColor=#FF0080;rotation=-27.4;" vertex="1" parent="1">
                    <mxGeometry x="46" y="661" width="120" height="30" as="geometry"/>
                </mxCell>
                <mxCell id="183" style="edgeStyle=none;html=1;exitX=1;exitY=1;exitDx=0;exitDy=0;dashed=1;fontColor=#333333;strokeColor=#333333;strokeWidth=2;rounded=1;startArrow=classic;startFill=1;" edge="1" parent="1" source="65" target="69">
                    <mxGeometry relative="1" as="geometry">
                        <mxPoint x="490" y="540" as="targetPoint"/>
                    </mxGeometry>
                </mxCell>
                <mxCell id="184" value="JWT Authenticated" style="text;html=1;strokeColor=none;fillColor=none;align=left;verticalAlign=middle;whiteSpace=wrap;rounded=0;fontColor=#333333;" vertex="1" parent="1">
                    <mxGeometry x="499" y="408" width="60" height="30" as="geometry"/>
                </mxCell>
            </root>
        </mxGraphModel>
    </diagram>
</mxfile>